<?xml version="1.0" encoding="utf-8"?>
<!-- Generator: Adobe Illustrator 22.0.1, SVG Export Plug-In . SVG Version: 6.00 Build 0)  -->
<svg version="1.1" id="Laag_1" xmlns="http://www.w3.org/2000/svg" xmlns:xlink="http://www.w3.org/1999/xlink" x="0px" y="0px"
	 viewBox="0 0 448.8 637.1" style="enable-background:new 0 0 448.8 637.1;" xml:space="preserve">
<style type="text/css">
	.st0{fill:none;}
	.st1{fill:#ED6B06;}
	.st2{fill:#FFFFFF;}
</style>
<g>
	<path class="st0" d="M124.5,258.3L124.5,258.3c-0.3,0-0.6,0-0.8,0C123.9,258.3,124.2,258.3,124.5,258.3z"/>
	<path class="st0" d="M269.8,283.4c-0.2,0-0.4,0.1-0.6,0.1C269.4,283.5,269.6,283.5,269.8,283.4l12.6-3c2.6-0.6,4.7-1.5,6.5-2.6
		c-1.8,1.1-4,2-6.5,2.6L269.8,283.4z"/>
	<path class="st0" d="M308.4,258l12.3-2.9c0.3-0.1,0.6-0.2,0.9-0.3c-0.2,0.1-0.5,0.2-0.9,0.3L308.4,258z"/>
	<path class="st0" d="M302.7,273.2c0.2,1,0.6,1.5,1.1,1.7C303.3,274.7,302.9,274.2,302.7,273.2z"/>
	<path class="st0" d="M325.8,270l1.8-0.4c0.8-0.2,1.3-0.5,1.6-0.9c-0.3,0.4-0.8,0.7-1.6,0.9L325.8,270z"/>
	<path class="st0" d="M283.4,253.5c-1.3-3.1-4.1-4.3-8.3-3.3C279.3,249.2,282.1,250.4,283.4,253.5z"/>
	<path class="st0" d="M213.9,296.8l4-1c0.1,0,0.2,0,0.2-0.1c-0.1,0-0.2,0.1-0.2,0.1L213.9,296.8z"/>
	<path class="st0" d="M209.4,295.8c0.7,1.3,1.5,1.6,3.5,1.2C211,297.4,210.2,297,209.4,295.8z"/>
	<path class="st0" d="M173.9,304.3l-2.9-4.6L173.9,304.3c0.5,0.8,1,1.2,1.8,1.3C174.8,305.5,174.4,305.1,173.9,304.3z"/>
	<path class="st0" d="M148.1,311C148.1,311,148.1,311,148.1,311C148.1,311,148.1,311,148.1,311C148.1,311,148.1,311,148.1,311z"/>
	<path class="st0" d="M283.9,255l2.2,9.2c0.1,0.4,0.1,0.8,0.2,1.2c0,0,0,0,0,0c0-0.4-0.1-0.7-0.2-1.1L283.9,255z"/>
	<path class="st0" d="M283.7,160.6c2,1.9,4.1,2,8.7,1l8.2-2l-8.2,2C287.8,162.7,285.7,162.5,283.7,160.6z"/>
	<path class="st0" d="M91.8,225.6c-1.4-5.7,4.4-7.1,4.4-7.1l1-0.2l-1,0.2C96.1,218.5,90.4,219.9,91.8,225.6l9.2,38.6
		c0,0,0.3,1.4,1.4,2.7c-1.1-1.3-1.4-2.7-1.4-2.7L91.8,225.6z"/>
	<path class="st0" d="M250.4,508c-63.1,9.4-112.1,31.7-109.4,50c2.7,18.2,55.3,20.5,118.4,11.1c63.1-9.4,112.8-26.8,110.1-45
		C366.9,505.8,313.6,498.6,250.4,508z"/>
	<path class="st0" d="M300.6,159.6c2-0.5,2.7-1.5,2.4-2.8l0,0C303.2,158.1,302.6,159.1,300.6,159.6z"/>
	<path class="st0" d="M219.4,294.5c0-0.1,0-0.2,0-0.3c0,0,0,0,0,0C219.3,294.3,219.3,294.4,219.4,294.5z"/>
	<path class="st0" d="M249.2,171.9l8.3-2c0.1,0,0.3-0.1,0.4-0.1c-0.1,0-0.3,0.1-0.4,0.1L249.2,171.9z"/>
	<path class="st0" d="M118.9,155.5l-5.7-23.7c-0.1-0.5-0.2-0.9-0.2-1.2c-0.4-2.6,0.5-3.7,3.4-4.4l8.3-2c0.4-0.1,0.7-0.2,1.1-0.2
		c-0.3,0-0.7,0.1-1.1,0.2l-8.3,2c-2.9,0.7-3.8,1.8-3.4,4.4c0,0.4,0.1,0.8,0.2,1.2L118.9,155.5l-24.7,5.9l0,0L118.9,155.5z"/>
	<path class="st0" d="M185.3,183.5c0.5,1.6,1.2,2.4,2.3,2.6C186.5,185.9,185.8,185.1,185.3,183.5z"/>
	<path class="st0" d="M91.3,209.6c-2.3,0.3-3.5-0.6-4.1-3.4l-15.4-64.5c-0.1-0.4-0.2-0.8-0.2-1.1c0,0,0-0.1,0-0.1
		c-0.4-2.6,0.6-3.7,3.4-4.4l8.3-2c0.4-0.1,0.7-0.2,1.1-0.2c-0.3,0-0.7,0.1-1.1,0.2l-8.3,2c-2.8,0.7-3.8,1.8-3.4,4.4c0,0,0,0.1,0,0.1
		c0,0.3,0.1,0.7,0.2,1.1l15.4,64.5C87.8,209,88.9,209.9,91.3,209.6C91.3,209.6,91.3,209.6,91.3,209.6z"/>
	<path class="st0" d="M128.6,196.3l-6-25.1L128.6,196.3c0.7,2.8,1.7,3.7,4.1,3.4C130.3,200,129.3,199.1,128.6,196.3z"/>
	<path class="st0" d="M142.1,197.5l-4.3,1L142.1,197.5c2-0.5,3.1-1.2,3.3-2.5C145.2,196.3,144.2,197,142.1,197.5z"/>
	<path class="st0" d="M233.5,278.3c-0.6-0.1-1.3-0.1-2.1,0C232.2,278.2,232.9,278.2,233.5,278.3z"/>
	<path class="st0" d="M189.4,418c-0.2,4.4-2.1,5.7-6,6.6C187.2,423.7,189.2,422.5,189.4,418l0.8-48.8c0-2.8-0.2-5.7-0.4-8.6
		c0.3,2.9,0.4,5.8,0.4,8.6L189.4,418z"/>
	<path class="st0" d="M252.9,286.2c0.1,0.3,0.1,0.7-0.1,0.9C253,286.9,253,286.6,252.9,286.2C252.9,286.2,252.9,286.2,252.9,286.2
		C252.9,286.2,252.9,286.2,252.9,286.2z"/>
	<path class="st0" d="M226.6,378.3c0.2,1.5,0.4,2.6,0.6,3.3l0,0C227,380.9,226.8,379.8,226.6,378.3z"/>
	<path class="st0" d="M272.3,382.5c7.9,11,20.9,16.1,37.6,13.8C293.2,398.6,280.3,393.5,272.3,382.5z"/>
	<path class="st0" d="M105.9,284.6c-0.1-0.2-0.1-0.4-0.1-0.6C105.8,284.2,105.8,284.4,105.9,284.6l8.1,33.7c0.1,0.6,0.3,1.1,0.6,1.4
		c-0.3-0.3-0.5-0.7-0.6-1.4L105.9,284.6z"/>
	<path class="st0" d="M237.2,264.6L237.2,264.6c0-0.2-0.1-0.4-0.1-0.6C237.2,264.2,237.2,264.4,237.2,264.6z"/>
	<path class="st0" d="M296.5,310.4c-1.8,0.4-3.5,1-5,1.6C293,311.3,294.7,310.8,296.5,310.4c7.2-1.7,12.7-1,16.8,2.2
		C309.2,309.4,303.7,308.7,296.5,310.4z"/>
	<path class="st0" d="M247.4,288.8c-0.3,0.1-0.7,0.1-1,0.2C246.7,288.9,247,288.9,247.4,288.8l4.3-1L247.4,288.8z"/>
	<path class="st0" d="M196,273.2c0.5,1.1,1.1,2.4,1.9,3.7l4.6,7.3l-4.6-7.3C197.1,275.6,196.5,274.4,196,273.2z"/>
	<path class="st0" d="M144.8,312.8c-0.3,0.4-0.8,0.6-1.5,0.8C144,313.5,144.5,313.2,144.8,312.8z"/>
	<path class="st0" d="M131.5,292.1c1.3,5.4,3.3,9.3,4.3,11.1l0,0C134.9,301.4,132.8,297.4,131.5,292.1z"/>
	<path class="st0" d="M159.1,278L159.1,278c0,0,1,3.8,3.2,7.4l4.6,7.3l-4.6-7.3C160.1,281.8,159.1,278,159.1,278z"/>
	<path class="st1" d="M159.1,278l-0.5,0.1c0.1,0.4,0.2,1.1,0.4,2.1c0.2,1.5,0.4,3.6,0.2,5.9l-0.8,8.6l8.4-2l-4.6-7.3
		C160.1,281.8,159.1,278,159.1,278z"/>
	<path class="st1" d="M196,273.2c-0.2-0.4-0.3-0.7-0.4-1.1c-0.2-0.5-0.3-0.9-0.4-1.2c-0.3-0.9-0.4-1.4-0.4-1.4l-0.5,0.1
		c0.1,0.4,0.2,1.1,0.4,2.1c0,0.1,0,0.2,0.1,0.4c0.2,1.5,0.3,3.4,0.2,5.5l-0.8,8.6l8.4-2l-4.6-7.3C197.1,275.6,196.5,274.4,196,273.2
		z"/>
	<path class="st1" d="M286.1,264.3l-2.2-9.2c-0.1-0.5-0.3-1-0.5-1.5c-1.3-3.1-4.1-4.3-8.3-3.3l-5.9,1.4l5.2,21.8l6-1.4
		c4.1-1,6.1-3.2,5.9-6.6C286.2,265,286.2,264.7,286.1,264.3z"/>
	<path class="st1" d="M266.2,124.2c4.8-1.1,7.1-4.2,6.8-8.5c-0.1-0.5-0.1-1-0.2-1.6c-1.3-5.3-5.1-7.7-10.5-6.4l-14.2,3.4l3.9,16.4
		L266.2,124.2z"/>
	<path class="st1" d="M180.5,19.7C70.3,36.1-8.7,119.2,13.5,269.2c13.9,93.4,60.8,170.7,118.8,210.4c0,0,2,1.4,4.4,1l15.6-2.3
		c0,0,1.7-0.3,1.5-2l-0.8-5.5c0,0-0.4-2.4,2.1-2.8l8-1.2c0,0,1.7-0.3,2,1.5l0.8,5.5c0,0,0.4,2.4,2.8,2.1l157.3-23.3
		c0,0,1.7-0.3,1.5-2l-0.8-5.5c0,0-0.4-2.4,2.1-2.8l8-1.2c0,0,1.7-0.3,2,1.5l0.8,5.5c0,0,0.4,2.4,2.8,2.1l14.2-2.1
		c0,0,2.4-0.4,3.9-2.3c44-54.8,66.4-142.3,52.6-235.6l0-0.3C390.5,59.9,290.8,3.4,180.5,19.7z M228.4,103c-0.4-2.6,0.6-3.7,3.4-4.4
		l28.4-6.8c14.9-3.6,26.3,2.9,29.9,17.8c0.3,1.3,0.5,2.6,0.7,3.8c1.2,8.6-1.5,15.6-7.3,20.3c1,0.9,1.8,1.9,2.8,2.8l15.4,17.7
		c0.8,0.9,1.3,1.8,1.3,2.5c0.3,1.3-0.3,2.3-2.4,2.8l-8.2,2c-4.5,1.1-6.7,0.9-8.7-1c-0.2-0.2-0.3-0.3-0.5-0.5
		c-0.1-0.2-0.3-0.3-0.4-0.5l-11.4-14c-0.4-0.5-0.8-1-1.2-1.4c-2.4-2.5-4.5-3.3-8.3-2.6c-0.6,0.1-1.3,0.2-2.1,0.4l-4.2,1l5.1,21.3
		c0.1,0.4,0.2,0.8,0.2,1.2c0.4,2.5-0.5,3.6-3,4.3c-0.1,0-0.2,0.1-0.4,0.1l-8.3,2c-0.4,0.1-0.7,0.2-1.1,0.2c-2.3,0.3-3.5-0.6-4.1-3.4
		l-15.4-64.5C228.5,103.8,228.4,103.4,228.4,103z M169.4,117.1c-0.4-2.6,0.6-3.7,3.4-4.4l41.3-9.9c3.2-0.8,4.5,0,5.2,3.2l1.6,6.9
		c0.1,0.4,0.2,0.8,0.2,1.2c0.3,1.8-0.1,2.9-1.4,3.6c-0.5,0.3-1.2,0.5-2,0.7l-28.7,6.9l3.1,12.9l23.6-5.6c3.2-0.8,4.5,0,5.2,3.1
		l1.6,6.9c0.1,0.5,0.2,0.9,0.2,1.2c0,0.1,0,0.2,0,0.3c0.3,2.4-0.6,3.4-3.4,4.1l-23.6,5.6l3.2,13.6l29.8-7.1c3.1-0.7,4.5,0.1,5.2,3.2
		l1.6,6.9c0.1,0.4,0.2,0.8,0.2,1.2c0,0.1,0,0.2,0.1,0.3c0.2,1.7-0.2,2.7-1.5,3.4c-0.5,0.3-1.1,0.5-1.9,0.7L190.3,186
		c-1.1,0.3-2,0.3-2.7,0.2c-1.1-0.3-1.8-1.1-2.3-2.6c-0.1-0.2-0.1-0.5-0.2-0.7l-15.4-64.5C169.6,117.9,169.5,117.4,169.4,117.1z
		 M141.2,123.7c-0.4-2.5,0.5-3.6,3.3-4.3l8.5-2c3.1-0.7,4.4,0,5.1,3.1l15.5,64.7c0.1,0.4,0.2,0.8,0.2,1.2c0.4,2.5-0.5,3.6-3.3,4.3
		l-8.5,2c-3.1,0.7-4.4,0-5.1-3.1L141.4,125C141.3,124.5,141.2,124.1,141.2,123.7z M87.1,206.2l-15.4-64.5c-0.1-0.4-0.2-0.8-0.2-1.1
		c0,0,0-0.1,0-0.1c-0.4-2.6,0.6-3.7,3.4-4.4l8.3-2c0.4-0.1,0.7-0.2,1.1-0.2c2.3-0.3,3.5,0.6,4.1,3.4l5.8,24.1l24.7-5.9l-5.7-23.7
		c-0.1-0.5-0.2-0.9-0.2-1.2c-0.4-2.6,0.5-3.7,3.4-4.4l8.3-2c0.4-0.1,0.7-0.2,1.1-0.2c2.2-0.3,3.2,0.5,3.9,2.9
		c0.1,0.2,0.1,0.4,0.1,0.6l15.4,64.5c0.1,0.5,0.2,0.9,0.2,1.2c0.1,0.4,0.1,0.8,0.1,1.2c0,0.2,0,0.4-0.1,0.6c-0.3,1.3-1.3,2-3.3,2.5
		l-4.3,1l-4,1c-0.4,0.1-0.8,0.2-1.1,0.2c-2.4,0.3-3.4-0.6-4.1-3.4l-6-25.1l-24.7,5.9l5.9,24.7c0.1,0.4,0.2,0.8,0.2,1.2l0,0
		c0.2,1,0.1,1.7-0.1,2.3c0,0.1-0.1,0.2-0.2,0.3c-0.1,0.1-0.1,0.2-0.2,0.3c-0.1,0.1-0.2,0.2-0.3,0.3c-0.1,0.1-0.1,0.2-0.2,0.2
		c-0.1,0.1-0.2,0.1-0.3,0.2c-0.1,0.1-0.2,0.1-0.3,0.2c-0.1,0-0.2,0.1-0.3,0.1c-0.4,0.2-0.9,0.4-1.5,0.5l-8.3,2
		c-0.4,0.1-0.7,0.2-1.1,0.2c0,0,0,0,0,0c0,0,0,0,0,0C88.9,209.9,87.8,209,87.1,206.2z M102.4,266.9c-1.1-1.3-1.4-2.7-1.4-2.7
		l-9.2-38.6c-1.4-5.7,4.4-7.1,4.4-7.1l1-0.2l20.1-4.8c0.6-0.6,1.4-0.7,1.4-0.7l183.7-43.9c2.9-0.7,4.5,1.8,4.5,1.8l2.6,3.8l0,0
		l6,8.9l3.6,5.2c0,0,0,0,0,0l1.7,2.4l0,0l0,0l0,0.3l0.1,0.1l0,0l0,0l-1,8.2l-2.1,16.2c-0.4,2.9-3.2,3.6-3.2,3.6l-181.4,43.4
		l-24.8,5.9c-0.4,0.1-0.7,0.1-1,0.2c-0.6,0.1-1.1,0-1.5,0c-0.1,0-0.2,0-0.2,0c-0.1,0-0.1,0-0.2-0.1c-0.2,0-0.4-0.1-0.6-0.2
		c-0.1,0-0.1-0.1-0.2-0.1c-0.2-0.1-0.3-0.1-0.5-0.2c0,0-0.1-0.1-0.1-0.1C103.2,267.8,102.8,267.4,102.4,266.9z M321.6,237.4
		c0.2,1.2-0.3,1.8-1.8,2.1l-15,3.6l1.6,6.5l12.4-3c1.7-0.4,2.3,0,2.7,1.6l0.9,3.6c0.1,0.3,0.1,0.5,0.1,0.7c0.2,1.1,0,1.7-0.9,2.1
		c-0.2,0.1-0.5,0.2-0.9,0.3l-12.3,2.9l1.7,6.9l15.6-3.7c1.6-0.4,2.3,0.1,2.7,1.7l0.9,3.6c0.1,0.3,0.1,0.5,0.1,0.7
		c0.1,0.7,0.1,1.2-0.1,1.6c-0.3,0.4-0.8,0.7-1.6,0.9l-1.8,0.4l-20.4,4.9c-0.7,0.2-1.2,0.2-1.6,0c-0.6-0.2-0.9-0.7-1.1-1.7l-8.1-33.7
		c-0.1-0.3-0.1-0.5-0.1-0.7c-0.3-1.4,0.2-2.1,1.7-2.4l21.6-5.2c1.7-0.4,2.3,0,2.7,1.7l0.9,3.6c0.1,0.3,0.1,0.5,0.1,0.7
		C321.6,237.3,321.6,237.4,321.6,237.4z M295.1,263.6c1,6-1.1,11-6.1,14.1c-1.8,1.1-4,2-6.5,2.6l-12.6,3c-0.2,0-0.4,0.1-0.6,0.1
		c-1.2,0.2-1.8-0.3-2.2-1.8L259,248c-0.1-0.3-0.1-0.5-0.1-0.7c0,0,0,0,0,0c-0.3-1.4,0.2-2.1,1.7-2.4l12.6-3
		c10.2-2.4,17.2,1.7,19.3,10.7l2.2,9.2C294.9,262.4,295,263,295.1,263.6z M219.4,294.5c0,0.1,0,0.2,0,0.3c-0.1,0.5-0.5,0.8-1.2,1
		c-0.1,0-0.2,0.1-0.2,0.1l-4,1c-0.3,0.1-0.6,0.1-0.9,0.2c-2,0.4-2.8,0-3.5-1.2l-2.9-4.7l-13.3,3.2l-0.5,5.5c0,0.4-0.1,0.8-0.2,1.1
		c-0.4,0.9-1.2,1.4-3.2,1.8l-3.7,0.9c-0.2,0.1-0.5,0.1-0.7,0.1c-0.6,0-1-0.1-1.2-0.5c0,0.6-0.5,1-1.4,1.2l-4,1
		c-0.3,0.1-0.6,0.1-0.9,0.2c-0.2,0-0.5,0.1-0.7,0.1c-0.1,0-0.1,0-0.2,0c-0.3,0-0.6,0-0.9,0c-0.8-0.1-1.3-0.5-1.8-1.3l-2.9-4.6
		l-13.3,3.2l-0.5,5.5c-0.2,1.7-0.8,2.3-3.4,2.9l-3.7,0.9c-0.4,0.1-0.7,0.1-1,0.1c-0.6-0.1-0.9-0.5-1-1.1c0,0,0,0,0,0c0,0,0,0,0,0
		c0,0,0,0,0,0c-0.1-0.3-0.1-0.7,0-1.1l4.7-37.2c0.2-1.6,0.7-2.1,2.2-2.5l4.1-1c1.5-0.4,2.3-0.2,3.1,1.1l21,31.2
		c0.2,0.2,0.3,0.5,0.4,0.7c0-0.2,0-0.5,0-0.8l4.7-37.2c0.2-1.6,0.7-2.1,2.2-2.5l4.1-1c1.5-0.4,2.3-0.2,3.1,1.1l21,31.2
		c0.3,0.5,0.5,0.9,0.5,1.3c0,0,0,0,0,0C219.3,294.3,219.4,294.4,219.4,294.5z M115.3,320.1c-0.2,0-0.3-0.1-0.5-0.2
		c-0.1-0.1-0.2-0.1-0.3-0.2c-0.3-0.3-0.5-0.7-0.6-1.4l-8.1-33.7c-0.1-0.2-0.1-0.4-0.1-0.6c0,0,0,0,0-0.1c0,0,0,0,0,0
		c-0.3-1.4,0.2-2.1,1.7-2.4l4.5-1.1c1.1-0.3,1.7-0.1,2.3,0.5l14.6,13.7c3.8,3.5,5.9,7.4,6.7,8.6l0.3-0.1c-1-1.8-3.1-5.7-4.3-11.1
		l-3.1-12.8c-0.1-0.3-0.1-0.5-0.1-0.7c-0.3-1.4,0.2-2,1.7-2.4l4-1c1.6-0.4,2.3,0,2.7,1.7l8.1,33.7c0.1,0.3,0.1,0.5,0.1,0.7
		c0.1,0.7,0.1,1.2-0.2,1.6c-0.3,0.4-0.8,0.6-1.5,0.8l-4.4,1c-0.3,0.1-0.5,0.1-0.7,0.1c-0.7,0-1.2-0.1-1.7-0.6l-14.4-13.5
		c-3.6-3.3-6.1-7.6-6.9-9l-0.3,0.1c0.8,1.8,2.9,6,4.2,11.3l3.1,12.8c0.1,0.3,0.1,0.5,0.1,0.7c0.2,1.3-0.1,1.9-1.2,2.3
		c-0.2,0.1-0.3,0.1-0.6,0.2l-4,0.9c-0.4,0.1-0.8,0.1-1.1,0.1C115.5,320.2,115.4,320.2,115.3,320.1z M245.4,308.4l-1,96.5
		c0,4.4-2,5.6-6,6.6l-11.5,2.7c-0.5,0.1-1,0.2-1.4,0.3c-3.2,0.5-5.3-0.1-6.8-3.2L196,367.9c-2.7-5.7-5.3-12.7-7-19.1l-1.1,0.3
		c0.4,1.6,0.7,3.2,1,4.9c0,0,0,0,0,0.1c0.2,1.3,0.4,2.5,0.5,3.8c0.1,1,0.2,1.9,0.3,2.9c0.3,2.9,0.4,5.8,0.4,8.6l-0.8,48.8
		c-0.2,4.4-2.1,5.7-6,6.6l-11.5,2.7c-3.9,0.9-6.3,0.8-8.3-2.9l-44.5-85.9c-0.7-1.4-1.2-2.6-1.2-3.5c-0.2-1.8,0.7-2.8,3.5-3.5
		l13.5-3.2c4.9-1.2,7.1-0.8,9.1,3.3l18.8,42.1c2.5,5.6,6.8,18.8,7.4,21.5l1-0.2c-0.2-1.1-0.5-2.8-0.9-5c0-0.1,0-0.2,0-0.3
		c-0.8-5.3-1.6-12.8-1.5-17.5l0.9-46.8c0-4.5,2.1-5.9,6.4-7l11-2.6c4.4-1.1,6.9-0.7,9,3.3l21.7,41.4c3.4,6.6,7.4,18.4,8.1,21.4
		l1.1-0.3c-0.2-0.7-0.4-1.9-0.6-3.3c-0.1-0.5-0.2-1-0.2-1.5c0-0.1,0-0.2-0.1-0.4c0-0.1,0-0.2,0-0.3c-0.1-0.7-0.2-1.4-0.3-2.2
		c0,0,0,0,0-0.1c-0.7-4.9-1.5-10.9-1.7-14.9l-2.4-46.1c-0.2-4.5,1.6-5.8,6.5-7l11.9-2.8c3.3-0.8,4.6,0.1,4.9,2.5
		C245.3,306.4,245.4,307.3,245.4,308.4z M246.4,289c-2.1,0.4-3,0.1-4.1-1.2l-6-7.3c-1-1.2-1.8-1.9-2.9-2.1c-0.6-0.1-1.3-0.1-2.1,0
		c-0.3,0.1-0.7,0.1-1.1,0.2l-2.2,0.5l2.6,10.9c0.1,0.3,0.1,0.5,0.1,0.7c0,0,0,0,0,0c0,0.1,0,0.2,0,0.3c0,0.2,0.1,0.5,0,0.6
		c0,0.1,0,0.1-0.1,0.2c0,0.2-0.1,0.4-0.2,0.5c0,0.1-0.1,0.1-0.2,0.1c-0.1,0.1-0.2,0.2-0.4,0.3c-0.3,0.1-0.6,0.2-0.9,0.3l-4.4,1
		c-0.2,0-0.4,0.1-0.6,0.1c-0.6,0.1-1.1,0-1.5-0.3c-0.3-0.3-0.5-0.8-0.7-1.4l-8.1-33.7c-0.1-0.3-0.1-0.5-0.1-0.7
		c-0.3-1.4,0.2-2.1,1.7-2.4l14.9-3.6c7.8-1.9,13.8,1.5,15.6,9.3c0.2,0.7,0.3,1.4,0.4,2.1c0,0,0,0,0,0c0.1,0.7,0.2,1.4,0.2,2.1
		c0,3-1,5.6-2.9,7.6c-0.3,0.3-0.7,0.6-1,0.9c0.5,0.4,0.9,0.9,1.3,1.4l8.1,9.3c0.2,0.2,0.3,0.4,0.4,0.6c0.1,0.2,0.2,0.4,0.2,0.5
		c0,0.1,0,0.2,0,0.3c0.1,0.3,0.1,0.7-0.1,0.9c0,0,0,0,0,0c-0.1,0.1-0.2,0.2-0.4,0.3c-0.2,0.1-0.4,0.2-0.7,0.3l-4.3,1
		C247,288.9,246.7,288.9,246.4,289z M351.1,358.4c0.2,0.8,0.2,1.8,0,3c-1.9,16.8-13.2,28.6-34.3,33.6c-1.7,0.4-3.4,0.7-5,1
		c-0.6,0.1-1.2,0.2-1.9,0.3c-16.7,2.3-29.7-2.8-37.6-13.8c-0.5-0.7-1-1.5-1.5-2.3c-0.5-0.9-1-1.8-1.5-2.7c-0.5-1-1-2-1.4-3.1
		c-0.5-1.1-0.9-2.3-1.3-3.5c-0.5-1.4-0.9-2.8-1.2-4.3l-6.9-28.9c-0.4-1.6-0.7-3.1-0.9-4.6c-3.4-21.7,8.4-38.3,33.9-44.4
		c21.2-5.1,36.6,0.3,45.8,14.5c1,1.4,1.5,2.6,1.5,3.7c0,0,0,0,0,0c0,0.1,0,0.1,0,0.2c0,0.4,0,0.8-0.1,1.2c-0.1,0.6-0.4,1.3-1,1.8
		c-0.5,0.6-1.3,1.2-2.2,1.8l-10.1,6.5c-4,2.3-5.7,2-8.3-1.8c-1.1-1.6-2.3-2.9-3.7-4c-4.1-3.2-9.6-3.9-16.8-2.2c-1.8,0.4-3.5,1-5,1.6
		c-0.5,0.2-1,0.4-1.5,0.7c-1.9,0.9-3.5,2-4.7,3.2c-3.5,3.4-4.9,8-4.1,13.8c0.1,0.6,0.2,1.3,0.4,1.9l7,29.2
		c2.7,11.3,10.5,15.5,23,12.5c9.6-2.3,14.5-7.1,15.5-14.8c0.6-4.5,2.2-6,6.6-5.4l11.9,1.2C349.1,354.7,350.8,355.9,351.1,358.4
		C351.1,358.4,351.1,358.4,351.1,358.4z"/>
	<path class="st1" d="M231.6,260.6l-7.4,1.8l2,8.4l7.5-1.8c2.5-0.6,3.7-2.2,3.6-4.4c0-0.2-0.1-0.4-0.1-0.6
		C236.5,261.2,234.5,260,231.6,260.6z"/>
	<path class="st1" d="M350.9,476.3l-205.8,30.6c-46.4,20.4-74.9,47.5-71.2,72.8c6,40.6,91.1,49.1,192.2,34
		c101.1-15,180.1-47.8,174-88.4C436.4,500,401.3,482.4,350.9,476.3z M259.5,569.1c-63.1,9.4-115.7,7.1-118.4-11.1
		c-2.7-18.2,46.3-40.6,109.4-50c63.1-9.4,116.5-2.2,119.2,16C372.3,542.2,322.6,559.7,259.5,569.1z"/>
	<path class="st1" d="M159.4,490.1l-28.4,4.2l0.6,4.3L364.7,464l-0.6-4.3l-25.9,3.8l-0.1-0.7L336,449l-0.1-0.9l-0.4-2.5
		c0,0-0.1-0.7-0.8-0.6l-3.9,0.6c0,0-0.7,0.1-0.6,0.8l0.4,2.5l0,0l2.2,14.8l0.1,0.7l-168.3,25l-0.1-0.7l-2.1-13.8c0,0,0-0.1,0-0.1
		l-0.5-3.4c0,0-0.1-0.7-0.8-0.6l-3.9,0.6c0,0-0.7,0.1-0.6,0.8l0.5,3.4c0,0,0,0,0,0.1l2.1,13.9L159.4,490.1z"/>
	<path class="st2" d="M74.8,136.1c-2.8,0.7-3.8,1.8-3.4,4.4c0,0,0,0.1,0,0.1c0,0.3,0.1,0.7,0.2,1.1l15.4,64.5
		c0.7,2.8,1.8,3.7,4.1,3.4c0,0,0,0,0,0c0.3,0,0.7-0.1,1.1-0.2l8.3-2c0.6-0.1,1.1-0.3,1.5-0.5c0.1,0,0.2-0.1,0.3-0.1
		c0.1-0.1,0.2-0.1,0.3-0.2c0.1-0.1,0.2-0.1,0.3-0.2c0.1-0.1,0.1-0.1,0.2-0.2c0.1-0.1,0.2-0.2,0.3-0.3c0.1-0.1,0.1-0.2,0.2-0.3
		c0.1-0.1,0.1-0.2,0.2-0.3c0.3-0.6,0.3-1.4,0.1-2.3l0,0c0-0.4-0.1-0.8-0.2-1.2l-5.9-24.7l24.7-5.9l6,25.1c0.7,2.8,1.7,3.7,4.1,3.4
		c0.3,0,0.7-0.1,1.1-0.2l4-1l4.3-1c2-0.5,3.1-1.2,3.3-2.5c0-0.2,0.1-0.4,0.1-0.6c0-0.4,0-0.8-0.1-1.2c0-0.4-0.1-0.8-0.2-1.2
		l-15.4-64.5c0-0.2-0.1-0.4-0.1-0.6c-0.7-2.3-1.7-3.1-3.9-2.9c-0.3,0-0.7,0.1-1.1,0.2l-8.3,2c-2.9,0.7-3.8,1.8-3.4,4.4
		c0,0.4,0.1,0.8,0.2,1.2l5.7,23.7l-24.7,5.9l0,0l-5.8-24.1c-0.7-2.8-1.8-3.7-4.1-3.4c-0.3,0-0.7,0.1-1.1,0.2L74.8,136.1z"/>
	<path class="st2" d="M244,168.7c0.7,2.8,1.8,3.7,4.1,3.4c0.3,0,0.7-0.1,1.1-0.2l8.3-2c0.1,0,0.3-0.1,0.4-0.1c2.5-0.7,3.4-1.8,3-4.3
		c0-0.4-0.1-0.8-0.2-1.2l-5.1-21.3l4.2-1c0.7-0.2,1.4-0.3,2.1-0.4c3.8-0.6,5.9,0.1,8.3,2.6c0.4,0.4,0.8,0.9,1.2,1.4l11.4,14
		c0.1,0.2,0.3,0.3,0.4,0.5c0.2,0.2,0.3,0.3,0.5,0.5c2,1.9,4.1,2,8.7,1l8.2-2c2-0.5,2.7-1.5,2.4-2.8l0,0c-0.1-0.8-0.5-1.6-1.3-2.5
		l-15.4-17.7c-0.9-1-1.8-2-2.8-2.8c5.9-4.7,8.5-11.7,7.3-20.3c-0.2-1.2-0.4-2.5-0.7-3.8c-3.6-14.9-15-21.4-29.9-17.8l-28.4,6.8
		c-2.8,0.7-3.8,1.8-3.4,4.4c0,0.4,0.1,0.8,0.2,1.2L244,168.7z M262.2,107.8c5.4-1.3,9.3,1,10.5,6.4c0.1,0.5,0.2,1.1,0.2,1.6
		c0.3,4.3-2.1,7.4-6.8,8.5l-14.3,3.4l-3.9-16.4L262.2,107.8z"/>
	<path class="st2" d="M156.9,189.6c0.7,3.1,2,3.9,5.1,3.1l8.5-2c2.8-0.7,3.7-1.8,3.3-4.3c0-0.4-0.1-0.8-0.2-1.2l-15.5-64.7
		c-0.7-3.1-2-3.9-5.1-3.1l-8.5,2c-2.8,0.7-3.7,1.8-3.3,4.3c0,0.4,0.1,0.8,0.2,1.2L156.9,189.6z"/>
	<path class="st2" d="M185.1,182.8c0.1,0.3,0.1,0.5,0.2,0.7c0.5,1.6,1.2,2.4,2.3,2.6c0.7,0.2,1.6,0.1,2.7-0.2l42.3-10.1
		c0.8-0.2,1.4-0.4,1.9-0.7c1.3-0.7,1.7-1.7,1.5-3.4c0-0.1,0-0.2-0.1-0.3c0-0.4-0.1-0.8-0.2-1.2l-1.6-6.9c-0.7-3.1-2.1-3.9-5.2-3.2
		l-29.8,7.1l-3.2-13.6l23.6-5.6c2.8-0.7,3.7-1.7,3.4-4.1c0-0.1,0-0.2,0-0.3c0-0.4-0.1-0.8-0.2-1.2l-1.6-6.9c-0.7-3.1-2-3.9-5.2-3.1
		l-23.6,5.6l-3.1-12.9l28.7-6.9c0.8-0.2,1.4-0.4,2-0.7c1.3-0.7,1.7-1.8,1.4-3.6c0-0.4-0.1-0.8-0.2-1.2l-1.6-6.9
		c-0.8-3.2-2-4-5.2-3.2l-41.3,9.9c-2.8,0.7-3.8,1.8-3.4,4.4c0,0.4,0.1,0.8,0.2,1.2L185.1,182.8z"/>
	<path class="st2" d="M273.2,241.9l-12.6,3c-1.5,0.4-2,1-1.7,2.4c0,0,0,0,0,0c0,0.2,0.1,0.4,0.1,0.7l8.1,33.7
		c0.3,1.5,0.9,1.9,2.2,1.8c0.2,0,0.4-0.1,0.6-0.1l12.6-3c2.6-0.6,4.7-1.5,6.5-2.6c5-3.1,7.1-8.1,6.1-14.1c-0.1-0.6-0.2-1.2-0.3-1.9
		l-2.2-9.2C290.4,243.6,283.4,239.4,273.2,241.9z M286.3,265.4C286.3,265.4,286.3,265.4,286.3,265.4c0.2,3.4-1.8,5.6-5.9,6.6l-6,1.4
		l-5.2-21.8l5.9-1.4c4.1-1,7,0.2,8.3,3.3c0.2,0.4,0.3,0.9,0.5,1.5l2.2,9.2C286.2,264.7,286.2,265,286.3,265.4z"/>
	<path class="st2" d="M251.7,287.8c0.3-0.1,0.5-0.2,0.7-0.3c0.2-0.1,0.3-0.2,0.4-0.3c0,0,0,0,0,0c0.2-0.3,0.2-0.6,0.1-0.9
		c0,0,0,0,0,0c0,0,0,0,0,0c0-0.1,0-0.2,0-0.3c0-0.2-0.1-0.4-0.2-0.5c-0.1-0.2-0.3-0.4-0.4-0.6l-8.1-9.3c-0.5-0.5-0.9-0.9-1.3-1.4
		c0.4-0.3,0.7-0.6,1-0.9c1.9-2,2.9-4.5,2.9-7.6c0-0.7-0.1-1.4-0.2-2.1c0,0,0,0,0,0c-0.1-0.7-0.2-1.4-0.4-2.1
		c-1.9-7.8-7.8-11.2-15.6-9.3l-14.9,3.6c-1.5,0.4-2,1-1.7,2.4c0,0.2,0.1,0.4,0.1,0.7l8.1,33.7c0.2,0.7,0.4,1.2,0.7,1.4
		c0.4,0.3,0.8,0.4,1.5,0.3c0.2,0,0.4-0.1,0.6-0.1l4.4-1c0.4-0.1,0.7-0.2,0.9-0.3c0.2-0.1,0.3-0.2,0.4-0.3c0.1-0.1,0.1-0.1,0.2-0.1
		c0.1-0.1,0.2-0.3,0.2-0.5c0-0.1,0.1-0.1,0.1-0.2c0-0.2,0-0.4,0-0.6c0-0.1,0-0.2,0-0.3c0,0,0,0,0,0c0-0.2-0.1-0.4-0.1-0.7l-2.6-10.9
		l2.2-0.5c0.4-0.1,0.7-0.2,1.1-0.2c0.8-0.1,1.5-0.1,2.1,0c1.1,0.2,1.9,0.9,2.9,2.1l6,7.3c1.1,1.3,2,1.6,4.1,1.2
		c0.3-0.1,0.6-0.1,1-0.2L251.7,287.8z M237.2,264.6c0.2,2.2-1.1,3.8-3.6,4.4l-7.5,1.8l-2-8.4l7.4-1.8c2.8-0.7,4.8,0.5,5.5,3.3
		C237.2,264.2,237.2,264.4,237.2,264.6L237.2,264.6z"/>
	<path class="st2" d="M116.7,320l4-0.9c0.2,0,0.4-0.1,0.6-0.2c1.1-0.4,1.4-1,1.2-2.3c0-0.2-0.1-0.4-0.1-0.7l-3.1-12.8
		c-1.3-5.3-3.4-9.5-4.2-11.3l0.3-0.1c0.8,1.3,3.3,5.6,6.9,9l14.4,13.5c0.5,0.5,1,0.7,1.7,0.6c0.2,0,0.5-0.1,0.7-0.1l4.4-1
		c0.8-0.2,1.3-0.4,1.5-0.8c0.2-0.4,0.3-0.9,0.2-1.6c0-0.2-0.1-0.4-0.1-0.7l-8.1-33.7c-0.4-1.7-1.1-2.1-2.7-1.7l-4,1
		c-1.6,0.4-2,1-1.7,2.4c0,0.2,0.1,0.4,0.1,0.7l3.1,12.8c1.3,5.4,3.3,9.3,4.3,11.1l0,0l-0.3,0.1c-0.8-1.1-2.9-5-6.7-8.6l-14.6-13.7
		c-0.7-0.6-1.2-0.8-2.3-0.5l-4.5,1.1c-1.5,0.4-2,1-1.7,2.4c0,0,0,0,0,0c0,0,0,0,0,0.1c0,0.2,0,0.4,0.1,0.6l8.1,33.7
		c0.1,0.6,0.3,1.1,0.6,1.4c0.1,0.1,0.2,0.2,0.3,0.2c0.1,0.1,0.3,0.1,0.5,0.2c0.1,0,0.2,0,0.3,0C115.9,320.2,116.3,320.1,116.7,320z"
		/>
	<path class="st2" d="M218.8,292.9l-21-31.2c-0.8-1.3-1.6-1.4-3.1-1.1l-4.1,1c-1.5,0.4-2.1,0.8-2.2,2.5l-4.7,37.2c0,0.3,0,0.5,0,0.8
		c-0.1-0.2-0.2-0.4-0.4-0.7l-21-31.2c-0.8-1.3-1.6-1.4-3.1-1.1l-4.1,1c-1.5,0.4-2.1,0.8-2.2,2.5l-4.7,37.2c-0.1,0.5,0,0.8,0,1.1
		c0,0,0,0,0,0c0,0,0,0,0,0c0.1,0.7,0.3,1.1,1,1.1c0.3,0,0.6,0,1-0.1l3.7-0.9c2.7-0.6,3.3-1.2,3.4-2.9l0.5-5.5l13.3-3.2l2.9,4.6
		c0.5,0.8,1,1.2,1.8,1.3c0.3,0,0.6,0,0.9,0c0.1,0,0.1,0,0.2,0c0.2,0,0.4-0.1,0.7-0.1c0.3-0.1,0.6-0.1,0.9-0.2l4-1
		c1-0.2,1.4-0.6,1.4-1.2c0.2,0.4,0.6,0.6,1.2,0.5c0.2,0,0.4,0,0.7-0.1l3.7-0.9c2-0.5,2.9-0.9,3.2-1.8c0.1-0.3,0.2-0.7,0.2-1.1
		l0.5-5.5l13.3-3.2l2.9,4.7c0.7,1.3,1.5,1.6,3.5,1.2c0.3-0.1,0.6-0.1,0.9-0.2l4-1c0.1,0,0.2,0,0.2-0.1c0.7-0.2,1.1-0.5,1.2-1
		c0-0.1,0-0.2,0-0.3c0-0.1,0-0.2,0-0.3c0,0,0,0,0,0c0,0,0,0,0,0C219.3,293.9,219.1,293.4,218.8,292.9z M158.4,294.7l0.8-8.6
		c0.2-2.2,0-4.4-0.2-5.9c-0.1-1-0.3-1.7-0.4-2.1l0.5-0.1l0,0c0,0,1,3.8,3.2,7.4l4.6,7.3L158.4,294.7z M194,286.2l0.8-8.6
		c0.2-2.1,0-4-0.2-5.5c0-0.1,0-0.2-0.1-0.4c-0.1-1-0.3-1.7-0.4-2.1l0.5-0.1c0,0,0.1,0.5,0.4,1.4c0.1,0.4,0.3,0.8,0.4,1.2
		c0.1,0.3,0.3,0.7,0.4,1.1c0.5,1.1,1.1,2.4,1.9,3.7l4.6,7.3L194,286.2z"/>
	<path class="st2" d="M321.5,236.5l-0.9-3.6c-0.4-1.7-1.1-2.1-2.7-1.7l-21.6,5.2c-1.5,0.4-2,1-1.7,2.4c0,0.2,0.1,0.4,0.1,0.7
		l8.1,33.7c0.2,1,0.6,1.5,1.1,1.7c0.4,0.2,0.9,0.1,1.6,0l20.4-4.9l1.8-0.4c0.8-0.2,1.3-0.5,1.6-0.9c0.2-0.4,0.3-0.9,0.1-1.6
		c0-0.2-0.1-0.4-0.1-0.7l-0.9-3.6c-0.4-1.6-1.1-2.1-2.7-1.7l-15.6,3.7l-1.7-6.9l12.3-2.9c0.3-0.1,0.6-0.2,0.9-0.3
		c0.9-0.4,1.1-1,0.9-2.1c0-0.2-0.1-0.4-0.1-0.7l-0.9-3.6c-0.4-1.6-1.1-2-2.7-1.6l-12.4,3l-1.6-6.5l15-3.6c1.5-0.3,2-0.9,1.8-2.1
		c0-0.1,0-0.2-0.1-0.3C321.6,236.9,321.5,236.7,321.5,236.5z"/>
	<path class="st2" d="M345.7,354.4l-11.9-1.2c-4.4-0.6-6,0.8-6.6,5.4c-1,7.7-5.9,12.5-15.5,14.8c-12.5,3-20.3-1.2-23-12.5l-7-29.2
		c-0.2-0.7-0.3-1.3-0.4-1.9c-0.9-5.8,0.5-10.4,4.1-13.8c1.3-1.2,2.9-2.3,4.7-3.2c0.5-0.2,1-0.4,1.5-0.7c1.5-0.6,3.2-1.2,5-1.6
		c7.2-1.7,12.7-1,16.8,2.2c1.4,1.1,2.6,2.4,3.7,4c2.6,3.8,4.3,4.1,8.3,1.8l10.1-6.5c0.9-0.6,1.6-1.2,2.2-1.8c0.5-0.6,0.8-1.2,1-1.8
		c0.1-0.4,0.1-0.8,0.1-1.2c0-0.1,0-0.1,0-0.2c0,0,0,0,0,0c0-1.1-0.5-2.3-1.5-3.7c-9.3-14.1-24.7-19.5-45.8-14.5
		c-25.4,6.1-37.3,22.7-33.9,44.4c0.2,1.5,0.5,3,0.9,4.6l6.9,28.9c0.4,1.5,0.8,2.9,1.2,4.3c0.4,1.2,0.8,2.4,1.3,3.5
		c0.4,1.1,0.9,2.1,1.4,3.1c0.5,0.9,1,1.8,1.5,2.7c0.5,0.8,1,1.5,1.5,2.3c7.9,11,20.9,16.1,37.6,13.8c0.6-0.1,1.2-0.2,1.9-0.3
		c1.6-0.3,3.3-0.6,5-1c21.2-5.1,32.5-16.8,34.3-33.6c0.2-1.2,0.2-2.1,0-3c0,0,0,0,0,0C350.8,355.9,349.1,354.7,345.7,354.4z"/>
	<path class="st2" d="M240.2,303.1l-11.9,2.8c-4.9,1.2-6.7,2.5-6.5,7l2.4,46.1c0.2,3.9,1,10,1.7,14.9c0,0,0,0,0,0.1
		c0.1,0.8,0.2,1.5,0.3,2.2c0,0.1,0,0.2,0,0.3c0,0.1,0,0.2,0.1,0.4c0.1,0.5,0.2,1.1,0.2,1.5c0.2,1.5,0.4,2.6,0.6,3.3l0,0l-1.1,0.3
		c-0.7-3-4.7-14.8-8.1-21.4l-21.7-41.4c-2-4.1-4.5-4.4-9-3.3l-11,2.6c-4.3,1-6.4,2.4-6.4,7l-0.9,46.8c-0.1,4.7,0.7,12.2,1.5,17.5
		c0,0.1,0,0.2,0,0.3c0.3,2.1,0.6,3.9,0.9,5l-1,0.2c-0.6-2.7-4.9-15.9-7.4-21.5l-18.8-42.1c-2-4.1-4.2-4.4-9.1-3.3l-13.5,3.2
		c-2.8,0.7-3.7,1.7-3.5,3.5c0,0.9,0.5,2.1,1.2,3.5l44.5,85.9c1.9,3.6,4.4,3.8,8.3,2.9l11.5-2.7c3.9-0.9,5.8-2.2,6-6.6l0.8-48.8
		c0-2.8-0.2-5.7-0.4-8.6c-0.1-1-0.2-1.9-0.3-2.9c-0.2-1.3-0.3-2.5-0.5-3.8c0,0,0,0,0-0.1c-0.3-1.7-0.6-3.3-1-4.9l1.1-0.3
		c1.7,6.4,4.3,13.4,7,19.1l22.7,43.5c1.5,3.1,3.6,3.7,6.8,3.2c0.5-0.1,0.9-0.2,1.4-0.3l11.5-2.7c4-1,6-2.2,6-6.6l1-96.5
		c0-1.1,0-2-0.2-2.7C244.8,303.2,243.5,302.4,240.2,303.1z"/>
	<path class="st2" d="M103.9,268.2c0.2,0.1,0.3,0.2,0.5,0.2c0.1,0,0.1,0.1,0.2,0.1c0.2,0.1,0.4,0.1,0.6,0.2c0.1,0,0.1,0,0.2,0.1
		c0.1,0,0.2,0,0.2,0c0.5,0.1,1,0.1,1.5,0c0.3,0,0.7-0.1,1-0.2l24.8-5.9l181.4-43.4c0,0,2.9-0.7,3.2-3.6l2.1-16.2l1-8.2l0,0l0,0
		l-0.1-0.1l0-0.3l0,0l0,0l-1.7-2.4c0,0,0,0,0,0l-3.6-5.2l-6-8.9l0,0l-2.6-3.8c0,0-1.7-2.4-4.5-1.8l-183.7,43.9c0,0-0.8,0.2-1.4,0.7
		l-20.1,4.8l-1,0.2c0,0-5.7,1.4-4.4,7.1l9.2,38.6c0,0,0.3,1.4,1.4,2.7c0.4,0.4,0.8,0.9,1.4,1.2C103.8,268.1,103.9,268.2,103.9,268.2
		z M264.7,183.9l21.4-5.1c1.7-0.4,2.3,0,2.7,1.7l0.9,3.6c0.4,1.6,0,2.3-1.7,2.7l-14.9,3.6l1.6,6.9l12.2-2.9c1.6-0.4,2.3,0,2.7,1.6
		l0.9,3.6c0.4,1.6,0,2.3-1.7,2.7l-12.2,2.9l1.7,7.2l15.4-3.7c1.6-0.4,2.3,0.1,2.7,1.7l0.9,3.6c0.4,1.6-0.1,2.3-1.7,2.7l-21.9,5.2
		c-1.6,0.4-2.3,0-2.7-1.7l-8-33.4C262.6,184.9,263.1,184.2,264.7,183.9z M236.2,219.4l3.7-2.4c1.4-0.9,2.1-0.8,3.1,0.7
		c1.6,2.2,3.3,3,6,2.4c3.6-0.9,4.9-3.1,4-7l-5.5-22.9c-0.4-1.6,0-2.3,1.6-2.6l4.4-1.1c1.5-0.4,2.3,0,2.6,1.6l5.5,22.8
		c2,8.5-1.6,14.8-10.9,17c-7,1.7-12-0.4-15.4-5.4C234.6,221.2,234.8,220.3,236.2,219.4z M185.9,202.7l4.4-1.1
		c1.1-0.3,1.7-0.1,2.3,0.5l14.5,13.6c3.8,3.5,5.9,7.4,6.6,8.5l0.4-0.1c-0.9-1.5-3.2-5.7-4.5-11.4l-3-12.7c-0.4-1.7,0-2.3,1.7-2.7
		l3.9-0.9c1.6-0.4,2.3,0,2.7,1.7l8,33.4c0.4,1.7,0,2.3-1.6,2.7l-4.3,1c-1.1,0.3-1.7,0.1-2.4-0.5l-14.2-13.4
		c-3.6-3.3-6.1-7.6-6.9-8.9l-0.4,0.1c0.7,1.5,3,5.9,4.3,11.6l3,12.7c0.4,1.6-0.1,2.3-1.7,2.7l-3.9,0.9c-1.6,0.4-2.3,0-2.7-1.7
		l-8-33.4C183.8,203.8,184.3,203.1,185.9,202.7z M148.3,211.7l4.3-1c1.6-0.4,2.3,0,2.7,1.7l5.4,22.5c0.9,3.8,3.7,5.5,8.2,4.4
		c4.5-1.1,6.2-3.8,5.3-7.6l-5.4-22.5c-0.4-1.7,0-2.3,1.7-2.7l4.3-1c1.6-0.4,2.3,0,2.7,1.7l5.3,22.3c2.1,8.6-1.9,15.4-12.1,17.8
		c-10.1,2.4-16.7-1.9-18.8-10.4l-5.3-22.3C146.2,212.7,146.6,212.1,148.3,211.7z M113.9,219.9l4.3-1c1.6-0.4,2.3,0,2.7,1.7l3,12.6
		l0.9-0.2l0.5-0.1l6.3-15.2c0.7-1.8,1.3-2.2,3.8-2.8l4.6-1.1c1.5-0.4,2.2,0.6,1.6,1.9l-7.5,17.4c2.3,0.7,4.2,2.2,6.2,4.4l9.9,11.4
		c1,1.1,1,2.2-0.6,2.6l-4.3,1c-2.7,0.6-3.6,0.5-4.8-0.9l-7.4-8.9c-1.8-2.2-2.9-2.7-5.9-2l-1.4,0.3L129,254c0.4,1.6-0.1,2.3-1.7,2.7
		l-1.2,0.3l0.2,0.9l-1.3,0.3c-0.2,0-0.4,0.1-0.6,0.1l0,0c-0.3,0-0.6,0-0.8,0c-0.3-0.1-0.6-0.3-0.8-0.6c-1.5,0.3-2.2-0.1-2.6-1.7
		l-8-33.4C111.9,220.9,112.4,220.3,113.9,219.9z"/>
	<path class="st1" d="M120.3,256c0.4,1.6,1.1,2,2.6,1.7c0.2,0.3,0.5,0.5,0.8,0.6c0.2,0,0.5,0,0.8,0c0.2,0,0.4-0.1,0.6-0.1l1.3-0.3
		l-0.2-0.9l1.2-0.3c1.6-0.4,2.1-1.1,1.7-2.7l-3.1-13.1l1.4-0.3c3-0.7,4.2-0.2,5.9,2l7.4,8.9c1.2,1.5,2.1,1.6,4.8,0.9l4.3-1
		c1.7-0.4,1.6-1.5,0.6-2.6l-9.9-11.4c-2-2.3-3.9-3.7-6.2-4.4l7.5-17.4c0.6-1.3-0.1-2.2-1.6-1.9l-4.6,1.1c-2.6,0.6-3.1,1-3.8,2.8
		l-6.3,15.2l-0.5,0.1l-0.9,0.2l-3-12.6c-0.4-1.7-1.1-2-2.7-1.7l-4.3,1c-1.6,0.4-2.1,1.1-1.7,2.7L120.3,256z"/>
	<path class="st1" d="M271,220c0.4,1.6,1.1,2,2.7,1.7l21.9-5.2c1.6-0.4,2.1-1.1,1.7-2.7l-0.9-3.6c-0.4-1.6-1.1-2-2.7-1.7l-15.4,3.7
		l-1.7-7.2l12.2-2.9c1.7-0.4,2.1-1.1,1.7-2.7l-0.9-3.6c-0.4-1.6-1-2-2.7-1.6l-12.2,2.9l-1.6-6.9l14.9-3.6c1.6-0.4,2.1-1.1,1.7-2.7
		l-0.9-3.6c-0.4-1.7-1.1-2.1-2.7-1.7l-21.4,5.1c-1.6,0.4-2.1,1.1-1.7,2.7L271,220z"/>
	<path class="st1" d="M250.9,228c9.3-2.2,12.9-8.5,10.9-17l-5.5-22.8c-0.4-1.6-1.1-2-2.6-1.6l-4.4,1.1c-1.6,0.4-2,1-1.6,2.6
		l5.5,22.9c0.9,3.8-0.4,6.1-4,7c-2.7,0.6-4.4-0.2-6-2.4c-1.1-1.4-1.7-1.6-3.1-0.7l-3.7,2.4c-1.4,0.9-1.6,1.7-0.7,3.1
		C238.8,227.5,243.8,229.7,250.9,228z"/>
	<path class="st1" d="M192.2,238.8c0.4,1.7,1.1,2,2.7,1.7l3.9-0.9c1.6-0.4,2.1-1.1,1.7-2.7l-3-12.7c-1.3-5.6-3.7-10.1-4.3-11.6
		l0.4-0.1c0.8,1.3,3.3,5.6,6.9,8.9l14.2,13.4c0.7,0.6,1.3,0.8,2.4,0.5l4.3-1c1.6-0.4,2-1,1.6-2.7l-8-33.4c-0.4-1.6-1.1-2.1-2.7-1.7
		l-3.9,0.9c-1.7,0.4-2.1,1.1-1.7,2.7l3,12.7c1.4,5.7,3.6,9.8,4.5,11.4l-0.4,0.1c-0.8-1.1-2.9-5-6.6-8.5l-14.5-13.6
		c-0.6-0.6-1.2-0.8-2.3-0.5l-4.4,1.1c-1.6,0.4-2.1,1.1-1.7,2.7L192.2,238.8z"/>
	<path class="st1" d="M152,236.7c2,8.6,8.7,12.8,18.8,10.4c10.1-2.4,14.1-9.2,12.1-17.8l-5.3-22.3c-0.4-1.7-1.1-2-2.7-1.7l-4.3,1
		c-1.7,0.4-2.1,1.1-1.7,2.7l5.4,22.5c0.9,3.8-0.8,6.5-5.3,7.6c-4.5,1.1-7.3-0.6-8.2-4.4l-5.4-22.5c-0.4-1.7-1.1-2.1-2.7-1.7l-4.3,1
		c-1.7,0.4-2.1,1.1-1.7,2.7L152,236.7z"/>
</g>
</svg>
