<?xml version="1.0" encoding="UTF-8" standalone="no"?>
<svg width="225px" height="168px" viewBox="0 0 225 168" version="1.1" xmlns="http://www.w3.org/2000/svg" xmlns:xlink="http://www.w3.org/1999/xlink">
    <!-- Generator: Sketch 39.1 (31720) - http://www.bohemiancoding.com/sketch -->
    <title>quote_groen</title>
    <desc>Created with Sketch.</desc>
    <defs></defs>
    <g id="Page-1" stroke="none" stroke-width="1" fill="none" fill-rule="evenodd">
        <g id="quote_groen" fill="#77B72A">
            <g id="Fill-1">
                <path d="M178.558,0 L213.598,28.32 C198.238,35.04 176.158,56.16 169.918,74.399 C172.318,73.439 177.118,72.479 182.398,72.479 C205.438,72.479 224.158,90.239 224.158,117.119 C224.158,144.959 201.118,167.519 174.238,167.519 C144.958,167.519 118.559,144.959 118.559,105.6 C118.559,63.359 141.119,26.4 178.558,0 M59.999,0 L95.039,28.32 C79.679,35.04 57.6,56.16 51.359,74.399 C53.759,73.439 58.559,72.479 63.839,72.479 C86.879,72.479 105.599,90.239 105.599,117.119 C105.599,144.959 82.559,167.519 55.679,167.519 C26.4,167.519 0,144.959 0,105.6 C0,63.359 22.559,26.4 59.999,0"></path>
            </g>
        </g>
    </g>
</svg>